<svg xmlns="http://www.w3.org/2000/svg" viewBox="0 0 56.85 58.76"><g id="Слой_2" data-name="Слой 2"><g id="objects"><g id="g4780"><g id="g15"><path id="path17-6" d="M52.47,42.73c-1.76-1.42-3.65-2.7-5.51-4-3.71-2.6-7.11-2.8-9.87,1.39-1.56,2.35-3.73,2.45-6,1.42a26.59,26.59,0,0,1-13.95-13.6c-1.26-2.82-1.24-5.35,1.7-7.34,1.55-1.06,3.12-2.31,3-4.61-.16-3-7.46-13-10.34-14.11a5.3,5.3,0,0,0-3.6,0C1.13,4.14-1.67,9.69,1,16.28c8,19.63,22.07,33.3,41.44,41.64a19.71,19.71,0,0,0,3,.84c4.41,0,9.57-4.21,11.07-8.43,1.43-4.06-1.6-5.67-4-7.6Z"/><path id="path19-1" d="M30.75,3.11C44.91,5.29,51.45,12,53.25,26.29c.17,1.31-.32,3.3,1.56,3.33s1.49-1.91,1.5-3.23C56.48,13,44.76.5,31.16,0c-1,.15-3.15-.71-3.28,1.59-.09,1.55,1.7,1.3,2.87,1.48Z"/><path id="path21-2" d="M33.52,7C32.16,6.86,30.36,6.21,30,8.1s1.67,1.79,3,2.07c8.75,2,11.8,5.14,13.24,13.82.21,1.27-.21,3.23,1.94,2.91,1.59-.24,1-1.93,1.15-2.92.07-8.33-7.07-15.91-15.81-17Z"/><path id="path23" d="M34.32,13.83c-.91,0-1.8.12-2.13,1.09-.5,1.46.55,1.8,1.63,2,3.59.57,5.47,2.69,5.83,6.27.1,1,.72,1.75,1.65,1.64,1.3-.15,1.42-1.31,1.38-2.41.07-4-4.48-8.66-8.36-8.57Z"/></g></g></g></g></svg>