<svg xmlns="http://www.w3.org/2000/svg" viewBox="0 0 60.94 61.41"><defs><style>.cls-1{fill-rule:evenodd;}</style></defs><g id="Слой_2" data-name="Слой 2"><g id="objects"><path class="cls-1" d="M45.05,36.71c-.75-.41-4.44-2.4-5.13-2.68s-1.19-.42-1.73.32-2.07,2.41-2.53,2.9-.91.54-1.66.13a20.87,20.87,0,0,1-6-4A23.28,23.28,0,0,1,24,27.91c-.42-.78,0-1.18.39-1.54s.8-.87,1.2-1.3a5,5,0,0,0,.81-1.24,1.44,1.44,0,0,0,0-1.34c-.18-.39-1.57-4.2-2.15-5.76S23,15.41,22.52,15.39s-.95-.09-1.46-.11a2.79,2.79,0,0,0-2.07.88,8.53,8.53,0,0,0-2.91,6.26c-.14,3.76,2.46,7.49,2.82,8s5,8.67,12.61,12,7.69,2.33,9.09,2.26,4.59-1.68,5.3-3.44a6.39,6.39,0,0,0,.58-3.61c-.18-.33-.69-.54-1.43-.95ZM31,54.82a24.75,24.75,0,0,1-13.7-4.12L7.75,53.76l3.11-9.25A24.89,24.89,0,1,1,31,54.82ZM31,0A29.92,29.92,0,0,0,5.4,45.36L0,61.41l16.56-5.3A29.92,29.92,0,1,0,31,0Z"/></g></g></svg>